<svg xmlns="http://www.w3.org/2000/svg" viewBox="0 0 256 256">
    <path fill="#00AFFF" fill-rule="evenodd"
        d="M101.507 188.08 42.57 216.094a2 2 0 0 1-2.665-2.665l28.016-58.937a2 2 0 0 0-1.137-2.744L5.3 129.884a2 2 0 0 1 0-3.768l61.485-21.865a2 2 0 0 0 1.137-2.744L39.905 42.57a2 2 0 0 1 2.665-2.665l58.937 28.016a2 2 0 0 0 2.744-1.137L126.116 5.3a2 2 0 0 1 3.768 0l21.865 61.485a2 2 0 0 0 2.744 1.137l58.937-28.016a2 2 0 0 1 2.665 2.665l-28.016 58.937a2 2 0 0 0 1.137 2.744l61.485 21.865a2 2 0 0 1 0 3.768l-61.485 21.865a2 2 0 0 0-1.137 2.744l28.016 58.937a2 2 0 0 1-2.665 2.665l-58.937-28.016a2 2 0 0 0-2.744 1.137L129.884 250.7a2 2 0 0 1-3.768 0l-21.865-61.485a2 2 0 0 0-2.744-1.137Z" />
</svg>